<svg width="845" height="125" viewBox="0 0 845 125" fill="none" xmlns="http://www.w3.org/2000/svg">
<path d="M72.5764 29.3609H15.9813C15.299 29.3609 14.6447 29.632 14.1622 30.1144C13.6798 30.5969 13.4088 31.2512 13.4088 31.9335V47.3685C13.4164 51.7482 14.3531 56.0764 16.1568 60.0673C17.9605 64.0583 20.5902 67.6213 23.8724 70.5211H15.9813C15.299 70.5211 14.6447 70.7921 14.1622 71.2745C13.6798 71.757 13.4088 72.4113 13.4088 73.0936C13.4088 73.7759 13.6798 74.4302 14.1622 74.9126C14.6447 75.3951 15.299 75.6661 15.9813 75.6661H72.5764C73.2587 75.6661 73.913 75.3951 74.3955 74.9126C74.8779 74.4302 75.1489 73.7759 75.1489 73.0936C75.1489 72.4113 74.8779 71.757 74.3955 71.2745C73.913 70.7921 73.2587 70.5211 72.5764 70.5211H64.6853C68.625 67.0291 71.6126 62.5931 73.3675 57.6296C76.6349 57.4283 79.7026 55.9887 81.9456 53.6042C84.1885 51.2196 85.4378 48.0696 85.439 44.796V42.2235C85.439 38.8121 84.0838 35.5405 81.6716 33.1283C79.2594 30.7161 75.9878 29.3609 72.5764 29.3609ZM80.294 44.796C80.2928 46.4603 79.7537 48.0797 78.7569 49.4126C77.7601 50.7455 76.3592 51.7204 74.7631 52.192C75.0177 50.5967 75.1467 48.9839 75.1489 47.3685V34.9497C76.6532 35.4816 77.9557 36.4666 78.8771 37.7692C79.7985 39.0718 80.2935 40.628 80.294 42.2235V44.796ZM41.7063 21.6434V11.3534C41.7063 10.6711 41.9774 10.0168 42.4598 9.53435C42.9423 9.05191 43.5966 8.78088 44.2789 8.78088C44.9611 8.78088 45.6154 9.05191 46.0979 9.53435C46.5803 10.0168 46.8514 10.6711 46.8514 11.3534V21.6434C46.8514 22.3257 46.5803 22.98 46.0979 23.4625C45.6154 23.9449 44.9611 24.2159 44.2789 24.2159C43.5966 24.2159 42.9423 23.9449 42.4598 23.4625C41.9774 22.98 41.7063 22.3257 41.7063 21.6434ZM51.9964 21.6434V11.3534C51.9964 10.6711 52.2674 10.0168 52.7498 9.53435C53.2323 9.05191 53.8866 8.78088 54.5689 8.78088C55.2512 8.78088 55.9055 9.05191 56.3879 9.53435C56.8704 10.0168 57.1414 10.6711 57.1414 11.3534V21.6434C57.1414 22.3257 56.8704 22.98 56.3879 23.4625C55.9055 23.9449 55.2512 24.2159 54.5689 24.2159C53.8866 24.2159 53.2323 23.9449 52.7498 23.4625C52.2674 22.98 51.9964 22.3257 51.9964 21.6434ZM31.4163 21.6434V11.3534C31.4163 10.6711 31.6873 10.0168 32.1698 9.53435C32.6522 9.05191 33.3065 8.78088 33.9888 8.78088C34.6711 8.78088 35.3254 9.05191 35.8079 9.53435C36.2903 10.0168 36.5613 10.6711 36.5613 11.3534V21.6434C36.5613 22.3257 36.2903 22.98 35.8079 23.4625C35.3254 23.9449 34.6711 24.2159 33.9888 24.2159C33.3065 24.2159 32.6522 23.9449 32.1698 23.4625C31.6873 22.98 31.4163 22.3257 31.4163 21.6434Z" fill="#30261C" fill-opacity="0.8"/>
<path d="M11.34 100.347V112.857H9.288V107.385H3.402V112.857H1.35V100.347H3.402V105.711H9.288V100.347H11.34ZM18.3434 113.019C17.4074 113.019 16.5614 112.809 15.8054 112.389C15.0494 111.957 14.4554 111.357 14.0234 110.589C13.5914 109.809 13.3754 108.909 13.3754 107.889C13.3754 106.881 13.5974 105.987 14.0414 105.207C14.4854 104.427 15.0914 103.827 15.8594 103.407C16.6274 102.987 17.4854 102.777 18.4334 102.777C19.3814 102.777 20.2394 102.987 21.0074 103.407C21.7754 103.827 22.3814 104.427 22.8254 105.207C23.2694 105.987 23.4914 106.881 23.4914 107.889C23.4914 108.897 23.2634 109.791 22.8074 110.571C22.3514 111.351 21.7274 111.957 20.9354 112.389C20.1554 112.809 19.2914 113.019 18.3434 113.019ZM18.3434 111.237C18.8714 111.237 19.3634 111.111 19.8194 110.859C20.2874 110.607 20.6654 110.229 20.9534 109.725C21.2414 109.221 21.3854 108.609 21.3854 107.889C21.3854 107.169 21.2474 106.563 20.9714 106.071C20.6954 105.567 20.3294 105.189 19.8734 104.937C19.4174 104.685 18.9254 104.559 18.3974 104.559C17.8694 104.559 17.3774 104.685 16.9214 104.937C16.4774 105.189 16.1234 105.567 15.8594 106.071C15.5954 106.563 15.4634 107.169 15.4634 107.889C15.4634 108.957 15.7334 109.785 16.2734 110.373C16.8254 110.949 17.5154 111.237 18.3434 111.237ZM27.9139 104.613V110.103C27.9139 110.475 27.9979 110.745 28.1659 110.913C28.3459 111.069 28.6459 111.147 29.0659 111.147H30.3259V112.857H28.7059C27.7819 112.857 27.0739 112.641 26.5819 112.209C26.0899 111.777 25.8439 111.075 25.8439 110.103V104.613H24.6739V102.939H25.8439V100.473H27.9139V102.939H30.3259V104.613H27.9139ZM36.209 106.575C36.209 105.351 36.491 104.253 37.055 103.281C37.631 102.309 38.405 101.553 39.377 101.013C40.361 100.461 41.435 100.185 42.599 100.185C43.931 100.185 45.113 100.515 46.145 101.175C47.189 101.823 47.945 102.747 48.413 103.947H45.947C45.623 103.287 45.173 102.795 44.597 102.471C44.021 102.147 43.355 101.985 42.599 101.985C41.771 101.985 41.033 102.171 40.385 102.543C39.737 102.915 39.227 103.449 38.855 104.145C38.495 104.841 38.315 105.651 38.315 106.575C38.315 107.499 38.495 108.309 38.855 109.005C39.227 109.701 39.737 110.241 40.385 110.625C41.033 110.997 41.771 111.183 42.599 111.183C43.355 111.183 44.021 111.021 44.597 110.697C45.173 110.373 45.623 109.881 45.947 109.221H48.413C47.945 110.421 47.189 111.345 46.145 111.993C45.113 112.641 43.931 112.965 42.599 112.965C41.423 112.965 40.349 112.695 39.377 112.155C38.405 111.603 37.631 110.841 37.055 109.869C36.491 108.897 36.209 107.799 36.209 106.575ZM55.1168 113.019C54.1808 113.019 53.3348 112.809 52.5788 112.389C51.8228 111.957 51.2288 111.357 50.7968 110.589C50.3648 109.809 50.1488 108.909 50.1488 107.889C50.1488 106.881 50.3708 105.987 50.8148 105.207C51.2588 104.427 51.8648 103.827 52.6328 103.407C53.4008 102.987 54.2588 102.777 55.2068 102.777C56.1548 102.777 57.0128 102.987 57.7808 103.407C58.5488 103.827 59.1548 104.427 59.5988 105.207C60.0428 105.987 60.2648 106.881 60.2648 107.889C60.2648 108.897 60.0368 109.791 59.5808 110.571C59.1248 111.351 58.5008 111.957 57.7088 112.389C56.9288 112.809 56.0648 113.019 55.1168 113.019ZM55.1168 111.237C55.6448 111.237 56.1368 111.111 56.5928 110.859C57.0608 110.607 57.4388 110.229 57.7268 109.725C58.0148 109.221 58.1588 108.609 58.1588 107.889C58.1588 107.169 58.0208 106.563 57.7448 106.071C57.4688 105.567 57.1028 105.189 56.6468 104.937C56.1908 104.685 55.6988 104.559 55.1708 104.559C54.6428 104.559 54.1508 104.685 53.6948 104.937C53.2508 105.189 52.8968 105.567 52.6328 106.071C52.3688 106.563 52.2368 107.169 52.2368 107.889C52.2368 108.957 52.5068 109.785 53.0468 110.373C53.5988 110.949 54.2888 111.237 55.1168 111.237ZM66.4514 104.613H64.6154V112.857H62.5454V104.613H61.3754V102.939H62.5454V102.237C62.5454 101.097 62.8454 100.269 63.4454 99.7532C64.0574 99.2252 65.0114 98.9612 66.3074 98.9612V100.671C65.6834 100.671 65.2454 100.791 64.9934 101.031C64.7414 101.259 64.6154 101.661 64.6154 102.237V102.939H66.4514V104.613ZM72.4279 104.613H70.5919V112.857H68.5219V104.613H67.3519V102.939H68.5219V102.237C68.5219 101.097 68.8219 100.269 69.4219 99.7532C70.0339 99.2252 70.9879 98.9612 72.2839 98.9612V100.671C71.6599 100.671 71.2219 100.791 70.9699 101.031C70.7179 101.259 70.5919 101.661 70.5919 102.237V102.939H72.4279V104.613ZM83.3365 107.655C83.3365 108.027 83.3125 108.363 83.2645 108.663H75.6865C75.7465 109.455 76.0405 110.091 76.5685 110.571C77.0965 111.051 77.7445 111.291 78.5125 111.291C79.6165 111.291 80.3965 110.829 80.8525 109.905H83.0665C82.7665 110.817 82.2205 111.567 81.4285 112.155C80.6485 112.731 79.6765 113.019 78.5125 113.019C77.5645 113.019 76.7125 112.809 75.9565 112.389C75.2125 111.957 74.6245 111.357 74.1925 110.589C73.7725 109.809 73.5625 108.909 73.5625 107.889C73.5625 106.869 73.7665 105.975 74.1745 105.207C74.5945 104.427 75.1765 103.827 75.9205 103.407C76.6765 102.987 77.5405 102.777 78.5125 102.777C79.4485 102.777 80.2825 102.981 81.0145 103.389C81.7465 103.797 82.3165 104.373 82.7245 105.117C83.1325 105.849 83.3365 106.695 83.3365 107.655ZM81.1945 107.007C81.1825 106.251 80.9125 105.645 80.3845 105.189C79.8565 104.733 79.2025 104.505 78.4225 104.505C77.7145 104.505 77.1085 104.733 76.6045 105.189C76.1005 105.633 75.8005 106.239 75.7045 107.007H81.1945ZM94.4459 107.655C94.4459 108.027 94.4219 108.363 94.3739 108.663H86.7959C86.8559 109.455 87.1499 110.091 87.6779 110.571C88.2059 111.051 88.8539 111.291 89.6219 111.291C90.7259 111.291 91.5059 110.829 91.9619 109.905H94.1759C93.8759 110.817 93.3299 111.567 92.5379 112.155C91.7579 112.731 90.7859 113.019 89.6219 113.019C88.6739 113.019 87.8219 112.809 87.0659 112.389C86.3219 111.957 85.7339 111.357 85.3019 110.589C84.8819 109.809 84.6719 108.909 84.6719 107.889C84.6719 106.869 84.8759 105.975 85.2839 105.207C85.7039 104.427 86.2859 103.827 87.0299 103.407C87.7859 102.987 88.6499 102.777 89.6219 102.777C90.5579 102.777 91.3919 102.981 92.1239 103.389C92.8559 103.797 93.4259 104.373 93.8339 105.117C94.2419 105.849 94.4459 106.695 94.4459 107.655ZM92.3039 107.007C92.2919 106.251 92.0219 105.645 91.4939 105.189C90.9659 104.733 90.3119 104.505 89.5319 104.505C88.8239 104.505 88.2179 104.733 87.7139 105.189C87.2099 105.633 86.9099 106.239 86.8139 107.007H92.3039Z" fill="#544A3E"/>
<path d="M281.335 9.88041L277.234 17.3106H271.136V23.9928H273.469L275.858 35.8791H272.126L277.061 57.7082L280.226 57.6784L283.408 73.5394H313.533L313.744 72.4831L316.713 57.6764L319.723 57.7062L324.645 35.8772H321.081L323.455 23.9908H326.016V17.3086H319.538L315.421 9.87842L281.335 9.88041ZM283.119 12.015H313.665L316.262 16.7397H280.502L283.119 12.015ZM273.831 19.4352H323.297V21.8781H273.831V19.4352ZM275.362 38.0018H321.428L317.455 55.5538L298.363 55.3966L279.334 55.5538L275.362 38.0018Z" fill="#30261C" fill-opacity="0.8"/>
<path d="M249.612 106.575C249.612 105.351 249.894 104.253 250.458 103.281C251.034 102.309 251.808 101.553 252.78 101.013C253.764 100.461 254.838 100.185 256.002 100.185C257.334 100.185 258.516 100.515 259.548 101.175C260.592 101.823 261.348 102.747 261.816 103.947H259.35C259.026 103.287 258.576 102.795 258 102.471C257.424 102.147 256.758 101.985 256.002 101.985C255.174 101.985 254.436 102.171 253.788 102.543C253.14 102.915 252.63 103.449 252.258 104.145C251.898 104.841 251.718 105.651 251.718 106.575C251.718 107.499 251.898 108.309 252.258 109.005C252.63 109.701 253.14 110.241 253.788 110.625C254.436 110.997 255.174 111.183 256.002 111.183C256.758 111.183 257.424 111.021 258 110.697C258.576 110.373 259.026 109.881 259.35 109.221H261.816C261.348 110.421 260.592 111.345 259.548 111.993C258.516 112.641 257.334 112.965 256.002 112.965C254.826 112.965 253.752 112.695 252.78 112.155C251.808 111.603 251.034 110.841 250.458 109.869C249.894 108.897 249.612 107.799 249.612 106.575ZM268.52 113.019C267.584 113.019 266.738 112.809 265.982 112.389C265.226 111.957 264.632 111.357 264.2 110.589C263.768 109.809 263.552 108.909 263.552 107.889C263.552 106.881 263.774 105.987 264.218 105.207C264.662 104.427 265.268 103.827 266.036 103.407C266.804 102.987 267.662 102.777 268.61 102.777C269.558 102.777 270.416 102.987 271.184 103.407C271.952 103.827 272.558 104.427 273.002 105.207C273.446 105.987 273.668 106.881 273.668 107.889C273.668 108.897 273.44 109.791 272.984 110.571C272.528 111.351 271.904 111.957 271.112 112.389C270.332 112.809 269.468 113.019 268.52 113.019ZM268.52 111.237C269.048 111.237 269.54 111.111 269.996 110.859C270.464 110.607 270.842 110.229 271.13 109.725C271.418 109.221 271.562 108.609 271.562 107.889C271.562 107.169 271.424 106.563 271.148 106.071C270.872 105.567 270.506 105.189 270.05 104.937C269.594 104.685 269.102 104.559 268.574 104.559C268.046 104.559 267.554 104.685 267.098 104.937C266.654 105.189 266.3 105.567 266.036 106.071C265.772 106.563 265.64 107.169 265.64 107.889C265.64 108.957 265.91 109.785 266.45 110.373C267.002 110.949 267.692 111.237 268.52 111.237ZM277.748 99.5372V112.857H275.696V99.5372H277.748ZM279.759 107.853C279.759 106.857 279.963 105.975 280.371 105.207C280.791 104.439 281.355 103.845 282.063 103.425C282.783 102.993 283.581 102.777 284.457 102.777C285.105 102.777 285.741 102.921 286.365 103.209C287.001 103.485 287.505 103.857 287.877 104.325V99.5372H289.947V112.857H287.877V111.363C287.541 111.843 287.073 112.239 286.473 112.551C285.885 112.863 285.207 113.019 284.439 113.019C283.575 113.019 282.783 112.803 282.063 112.371C281.355 111.927 280.791 111.315 280.371 110.535C279.963 109.743 279.759 108.849 279.759 107.853ZM287.877 107.889C287.877 107.205 287.733 106.611 287.445 106.107C287.169 105.603 286.803 105.219 286.347 104.955C285.891 104.691 285.399 104.559 284.871 104.559C284.343 104.559 283.851 104.691 283.395 104.955C282.939 105.207 282.567 105.585 282.279 106.089C282.003 106.581 281.865 107.169 281.865 107.853C281.865 108.537 282.003 109.137 282.279 109.653C282.567 110.169 282.939 110.565 283.395 110.841C283.863 111.105 284.355 111.237 284.871 111.237C285.399 111.237 285.891 111.105 286.347 110.841C286.803 110.577 287.169 110.193 287.445 109.689C287.733 109.173 287.877 108.573 287.877 107.889ZM296.634 106.575C296.634 105.351 296.916 104.253 297.48 103.281C298.056 102.309 298.83 101.553 299.802 101.013C300.786 100.461 301.86 100.185 303.024 100.185C304.356 100.185 305.538 100.515 306.57 101.175C307.614 101.823 308.37 102.747 308.838 103.947H306.372C306.048 103.287 305.598 102.795 305.022 102.471C304.446 102.147 303.78 101.985 303.024 101.985C302.196 101.985 301.458 102.171 300.81 102.543C300.162 102.915 299.652 103.449 299.28 104.145C298.92 104.841 298.74 105.651 298.74 106.575C298.74 107.499 298.92 108.309 299.28 109.005C299.652 109.701 300.162 110.241 300.81 110.625C301.458 110.997 302.196 111.183 303.024 111.183C303.78 111.183 304.446 111.021 305.022 110.697C305.598 110.373 306.048 109.881 306.372 109.221H308.838C308.37 110.421 307.614 111.345 306.57 111.993C305.538 112.641 304.356 112.965 303.024 112.965C301.848 112.965 300.774 112.695 299.802 112.155C298.83 111.603 298.056 110.841 297.48 109.869C296.916 108.897 296.634 107.799 296.634 106.575ZM315.541 113.019C314.605 113.019 313.759 112.809 313.003 112.389C312.247 111.957 311.653 111.357 311.221 110.589C310.789 109.809 310.573 108.909 310.573 107.889C310.573 106.881 310.795 105.987 311.239 105.207C311.683 104.427 312.289 103.827 313.057 103.407C313.825 102.987 314.683 102.777 315.631 102.777C316.579 102.777 317.437 102.987 318.205 103.407C318.973 103.827 319.579 104.427 320.023 105.207C320.467 105.987 320.689 106.881 320.689 107.889C320.689 108.897 320.461 109.791 320.005 110.571C319.549 111.351 318.925 111.957 318.133 112.389C317.353 112.809 316.489 113.019 315.541 113.019ZM315.541 111.237C316.069 111.237 316.561 111.111 317.017 110.859C317.485 110.607 317.863 110.229 318.151 109.725C318.439 109.221 318.583 108.609 318.583 107.889C318.583 107.169 318.445 106.563 318.169 106.071C317.893 105.567 317.527 105.189 317.071 104.937C316.615 104.685 316.123 104.559 315.595 104.559C315.067 104.559 314.575 104.685 314.119 104.937C313.675 105.189 313.321 105.567 313.057 106.071C312.793 106.563 312.661 107.169 312.661 107.889C312.661 108.957 312.931 109.785 313.471 110.373C314.023 110.949 314.713 111.237 315.541 111.237ZM326.876 104.613H325.04V112.857H322.97V104.613H321.8V102.939H322.97V102.237C322.97 101.097 323.27 100.269 323.87 99.7532C324.482 99.2252 325.436 98.9612 326.732 98.9612V100.671C326.108 100.671 325.67 100.791 325.418 101.031C325.166 101.259 325.04 101.661 325.04 102.237V102.939H326.876V104.613ZM332.853 104.613H331.017V112.857H328.947V104.613H327.777V102.939H328.947V102.237C328.947 101.097 329.247 100.269 329.847 99.7532C330.459 99.2252 331.413 98.9612 332.709 98.9612V100.671C332.085 100.671 331.647 100.791 331.395 101.031C331.143 101.259 331.017 101.661 331.017 102.237V102.939H332.853V104.613ZM343.761 107.655C343.761 108.027 343.737 108.363 343.689 108.663H336.111C336.171 109.455 336.465 110.091 336.993 110.571C337.521 111.051 338.169 111.291 338.937 111.291C340.041 111.291 340.821 110.829 341.277 109.905H343.491C343.191 110.817 342.645 111.567 341.853 112.155C341.073 112.731 340.101 113.019 338.937 113.019C337.989 113.019 337.137 112.809 336.381 112.389C335.637 111.957 335.049 111.357 334.617 110.589C334.197 109.809 333.987 108.909 333.987 107.889C333.987 106.869 334.191 105.975 334.599 105.207C335.019 104.427 335.601 103.827 336.345 103.407C337.101 102.987 337.965 102.777 338.937 102.777C339.873 102.777 340.707 102.981 341.439 103.389C342.171 103.797 342.741 104.373 343.149 105.117C343.557 105.849 343.761 106.695 343.761 107.655ZM341.619 107.007C341.607 106.251 341.337 105.645 340.809 105.189C340.281 104.733 339.627 104.505 338.847 104.505C338.139 104.505 337.533 104.733 337.029 105.189C336.525 105.633 336.225 106.239 336.129 107.007H341.619ZM354.87 107.655C354.87 108.027 354.846 108.363 354.798 108.663H347.22C347.28 109.455 347.574 110.091 348.102 110.571C348.63 111.051 349.278 111.291 350.046 111.291C351.15 111.291 351.93 110.829 352.386 109.905H354.6C354.3 110.817 353.754 111.567 352.962 112.155C352.182 112.731 351.21 113.019 350.046 113.019C349.098 113.019 348.246 112.809 347.49 112.389C346.746 111.957 346.158 111.357 345.726 110.589C345.306 109.809 345.096 108.909 345.096 107.889C345.096 106.869 345.3 105.975 345.708 105.207C346.128 104.427 346.71 103.827 347.454 103.407C348.21 102.987 349.074 102.777 350.046 102.777C350.982 102.777 351.816 102.981 352.548 103.389C353.28 103.797 353.85 104.373 354.258 105.117C354.666 105.849 354.87 106.695 354.87 107.655ZM352.728 107.007C352.716 106.251 352.446 105.645 351.918 105.189C351.39 104.733 350.736 104.505 349.956 104.505C349.248 104.505 348.642 104.733 348.138 105.189C347.634 105.633 347.334 106.239 347.238 107.007H352.728Z" fill="#544A3E"/>
<path fill-rule="evenodd" clip-rule="evenodd" d="M545.696 10.7549C545.182 10.755 544.68 10.8843 544.254 11.1261C543.828 11.3679 543.498 11.7111 543.307 12.1116L538.983 21.1851H588.444L584.12 12.1116C583.928 11.7111 583.599 11.3679 583.173 11.1261C582.747 10.8843 582.245 10.755 581.731 10.7549H545.696ZM543.153 69.413L539.271 48.2501H588.156L584.274 69.413C584.181 69.923 583.873 70.388 583.407 70.724C582.94 71.06 582.346 71.2448 581.731 71.245H545.696C545.081 71.2448 544.487 71.06 544.02 70.724C543.554 70.388 543.246 69.923 543.153 69.413ZM538.571 26.5817H588.861C591.95 26.5817 594.446 28.405 594.446 30.6518V38.7834C594.446 41.0302 591.945 42.8449 588.861 42.8449H538.566C535.477 42.8449 532.981 41.0302 532.981 38.7834V30.6518C532.981 28.405 535.488 26.5817 538.571 26.5817Z" fill="#30261C" fill-opacity="0.8"/>
<path d="M514.366 106.575C514.366 105.351 514.648 104.253 515.212 103.281C515.788 102.309 516.562 101.553 517.534 101.013C518.518 100.461 519.592 100.185 520.756 100.185C522.088 100.185 523.27 100.515 524.302 101.175C525.346 101.823 526.102 102.747 526.57 103.947H524.104C523.78 103.287 523.33 102.795 522.754 102.471C522.178 102.147 521.512 101.985 520.756 101.985C519.928 101.985 519.19 102.171 518.542 102.543C517.894 102.915 517.384 103.449 517.012 104.145C516.652 104.841 516.472 105.651 516.472 106.575C516.472 107.499 516.652 108.309 517.012 109.005C517.384 109.701 517.894 110.241 518.542 110.625C519.19 110.997 519.928 111.183 520.756 111.183C521.512 111.183 522.178 111.021 522.754 110.697C523.33 110.373 523.78 109.881 524.104 109.221H526.57C526.102 110.421 525.346 111.345 524.302 111.993C523.27 112.641 522.088 112.965 520.756 112.965C519.58 112.965 518.506 112.695 517.534 112.155C516.562 111.603 515.788 110.841 515.212 109.869C514.648 108.897 514.366 107.799 514.366 106.575ZM537.954 102.939V112.857H535.902V111.687C535.578 112.095 535.152 112.419 534.624 112.659C534.108 112.887 533.556 113.001 532.968 113.001C532.188 113.001 531.486 112.839 530.862 112.515C530.25 112.191 529.764 111.711 529.404 111.075C529.056 110.439 528.882 109.671 528.882 108.771V102.939H530.916V108.465C530.916 109.353 531.138 110.037 531.582 110.517C532.026 110.985 532.632 111.219 533.4 111.219C534.168 111.219 534.774 110.985 535.218 110.517C535.674 110.037 535.902 109.353 535.902 108.465V102.939H537.954ZM542.713 104.397C543.061 103.941 543.535 103.557 544.135 103.245C544.735 102.933 545.413 102.777 546.169 102.777C547.033 102.777 547.819 102.993 548.527 103.425C549.247 103.845 549.811 104.439 550.219 105.207C550.627 105.975 550.831 106.857 550.831 107.853C550.831 108.849 550.627 109.743 550.219 110.535C549.811 111.315 549.247 111.927 548.527 112.371C547.819 112.803 547.033 113.019 546.169 113.019C545.413 113.019 544.741 112.869 544.153 112.569C543.565 112.257 543.085 111.873 542.713 111.417V117.573H540.661V102.939H542.713V104.397ZM548.743 107.853C548.743 107.169 548.599 106.581 548.311 106.089C548.035 105.585 547.663 105.207 547.195 104.955C546.739 104.691 546.247 104.559 545.719 104.559C545.203 104.559 544.711 104.691 544.243 104.955C543.787 105.219 543.415 105.603 543.127 106.107C542.851 106.611 542.713 107.205 542.713 107.889C542.713 108.573 542.851 109.173 543.127 109.689C543.415 110.193 543.787 110.577 544.243 110.841C544.711 111.105 545.203 111.237 545.719 111.237C546.247 111.237 546.739 111.105 547.195 110.841C547.663 110.565 548.035 110.169 548.311 109.653C548.599 109.137 548.743 108.537 548.743 107.853ZM556.852 106.575C556.852 105.351 557.134 104.253 557.698 103.281C558.274 102.309 559.048 101.553 560.02 101.013C561.004 100.461 562.078 100.185 563.242 100.185C564.574 100.185 565.756 100.515 566.788 101.175C567.832 101.823 568.588 102.747 569.056 103.947H566.59C566.266 103.287 565.816 102.795 565.24 102.471C564.664 102.147 563.998 101.985 563.242 101.985C562.414 101.985 561.676 102.171 561.028 102.543C560.38 102.915 559.87 103.449 559.498 104.145C559.138 104.841 558.958 105.651 558.958 106.575C558.958 107.499 559.138 108.309 559.498 109.005C559.87 109.701 560.38 110.241 561.028 110.625C561.676 110.997 562.414 111.183 563.242 111.183C563.998 111.183 564.664 111.021 565.24 110.697C565.816 110.373 566.266 109.881 566.59 109.221H569.056C568.588 110.421 567.832 111.345 566.788 111.993C565.756 112.641 564.574 112.965 563.242 112.965C562.066 112.965 560.992 112.695 560.02 112.155C559.048 111.603 558.274 110.841 557.698 109.869C557.134 108.897 556.852 107.799 556.852 106.575ZM575.76 113.019C574.824 113.019 573.978 112.809 573.222 112.389C572.466 111.957 571.872 111.357 571.44 110.589C571.008 109.809 570.792 108.909 570.792 107.889C570.792 106.881 571.014 105.987 571.458 105.207C571.902 104.427 572.508 103.827 573.276 103.407C574.044 102.987 574.902 102.777 575.85 102.777C576.798 102.777 577.656 102.987 578.424 103.407C579.192 103.827 579.798 104.427 580.242 105.207C580.686 105.987 580.908 106.881 580.908 107.889C580.908 108.897 580.68 109.791 580.224 110.571C579.768 111.351 579.144 111.957 578.352 112.389C577.572 112.809 576.708 113.019 575.76 113.019ZM575.76 111.237C576.288 111.237 576.78 111.111 577.236 110.859C577.704 110.607 578.082 110.229 578.37 109.725C578.658 109.221 578.802 108.609 578.802 107.889C578.802 107.169 578.664 106.563 578.388 106.071C578.112 105.567 577.746 105.189 577.29 104.937C576.834 104.685 576.342 104.559 575.814 104.559C575.286 104.559 574.794 104.685 574.338 104.937C573.894 105.189 573.54 105.567 573.276 106.071C573.012 106.563 572.88 107.169 572.88 107.889C572.88 108.957 573.15 109.785 573.69 110.373C574.242 110.949 574.932 111.237 575.76 111.237ZM587.094 104.613H585.258V112.857H583.188V104.613H582.018V102.939H583.188V102.237C583.188 101.097 583.488 100.269 584.088 99.7532C584.7 99.2252 585.654 98.9612 586.95 98.9612V100.671C586.326 100.671 585.888 100.791 585.636 101.031C585.384 101.259 585.258 101.661 585.258 102.237V102.939H587.094V104.613ZM593.071 104.613H591.235V112.857H589.165V104.613H587.995V102.939H589.165V102.237C589.165 101.097 589.465 100.269 590.065 99.7532C590.677 99.2252 591.631 98.9612 592.927 98.9612V100.671C592.303 100.671 591.865 100.791 591.613 101.031C591.361 101.259 591.235 101.661 591.235 102.237V102.939H593.071V104.613ZM603.98 107.655C603.98 108.027 603.956 108.363 603.908 108.663H596.33C596.39 109.455 596.684 110.091 597.212 110.571C597.74 111.051 598.388 111.291 599.156 111.291C600.26 111.291 601.04 110.829 601.496 109.905H603.71C603.41 110.817 602.864 111.567 602.072 112.155C601.292 112.731 600.32 113.019 599.156 113.019C598.208 113.019 597.356 112.809 596.6 112.389C595.856 111.957 595.268 111.357 594.836 110.589C594.416 109.809 594.206 108.909 594.206 107.889C594.206 106.869 594.41 105.975 594.818 105.207C595.238 104.427 595.82 103.827 596.564 103.407C597.32 102.987 598.184 102.777 599.156 102.777C600.092 102.777 600.926 102.981 601.658 103.389C602.39 103.797 602.96 104.373 603.368 105.117C603.776 105.849 603.98 106.695 603.98 107.655ZM601.838 107.007C601.826 106.251 601.556 105.645 601.028 105.189C600.5 104.733 599.846 104.505 599.066 104.505C598.358 104.505 597.752 104.733 597.248 105.189C596.744 105.633 596.444 106.239 596.348 107.007H601.838ZM615.089 107.655C615.089 108.027 615.065 108.363 615.017 108.663H607.439C607.499 109.455 607.793 110.091 608.321 110.571C608.849 111.051 609.497 111.291 610.265 111.291C611.369 111.291 612.149 110.829 612.605 109.905H614.819C614.519 110.817 613.973 111.567 613.181 112.155C612.401 112.731 611.429 113.019 610.265 113.019C609.317 113.019 608.465 112.809 607.709 112.389C606.965 111.957 606.377 111.357 605.945 110.589C605.525 109.809 605.315 108.909 605.315 107.889C605.315 106.869 605.519 105.975 605.927 105.207C606.347 104.427 606.929 103.827 607.673 103.407C608.429 102.987 609.293 102.777 610.265 102.777C611.201 102.777 612.035 102.981 612.767 103.389C613.499 103.797 614.069 104.373 614.477 105.117C614.885 105.849 615.089 106.695 615.089 107.655ZM612.947 107.007C612.935 106.251 612.665 105.645 612.137 105.189C611.609 104.733 610.955 104.505 610.175 104.505C609.467 104.505 608.861 104.733 608.357 105.189C607.853 105.633 607.553 106.239 607.457 107.007H612.947Z" fill="#544A3E"/>
<path d="M827.85 22.026H807.27V11.736H800.41V22.026H779.83C774.156 22.026 769.54 26.6428 769.54 32.316V66.6161C769.54 70.3994 772.616 73.4762 776.4 73.4762H831.28C835.063 73.4762 838.14 70.3994 838.14 66.6161V32.316C838.14 26.6428 833.523 22.026 827.85 22.026ZM779.83 28.886H827.85C828.76 28.886 829.632 29.2474 830.275 29.8906C830.918 30.5339 831.28 31.4063 831.28 32.316L831.283 43.0177C828.21 43.7997 826.245 45.5353 824.711 46.9004C822.972 48.4439 821.823 49.4661 819.265 49.4661C816.709 49.4661 815.56 48.4439 813.821 46.9039C811.78 45.0894 808.988 42.6061 803.823 42.6061C798.66 42.6061 795.868 45.0894 793.828 46.9039C792.089 48.4474 790.943 49.4661 788.388 49.4661C785.839 49.4661 784.693 48.4474 782.961 46.9039C781.428 45.5387 779.47 43.7997 776.4 43.0177V32.316C776.4 31.4063 776.761 30.5339 777.404 29.8906C778.048 29.2474 778.92 28.886 779.83 28.886ZM776.4 66.6161V50.4471C777.055 50.869 777.683 51.3869 778.399 52.0283C780.44 53.8428 783.229 56.3261 788.388 56.3261C793.546 56.3261 796.342 53.8428 798.383 52.0283C800.122 50.4848 801.267 49.4661 803.823 49.4661C806.378 49.4661 807.527 50.4882 809.266 52.0283C811.307 53.8428 814.099 56.3261 819.265 56.3261C824.43 56.3261 827.226 53.8428 829.266 52.0283C829.99 51.3835 830.621 50.8621 831.283 50.4368L831.287 66.6161H776.4Z" fill="#30261C" fill-opacity="0.8"/>
<path d="M771.409 97.979C772.741 97.979 773.905 98.237 774.901 98.753C775.909 99.257 776.683 99.989 777.223 100.949C777.775 101.897 778.051 103.007 778.051 104.279C778.051 105.551 777.775 106.655 777.223 107.591C776.683 108.527 775.909 109.247 774.901 109.751C773.905 110.243 772.741 110.489 771.409 110.489H767.323V97.979H771.409ZM771.409 108.815C772.873 108.815 773.995 108.419 774.775 107.627C775.555 106.835 775.945 105.719 775.945 104.279C775.945 102.827 775.555 101.693 774.775 100.877C773.995 100.061 772.873 99.653 771.409 99.653H769.375V108.815H771.409ZM789.174 105.287C789.174 105.659 789.15 105.995 789.102 106.295H781.524C781.584 107.087 781.878 107.723 782.406 108.203C782.934 108.683 783.582 108.923 784.35 108.923C785.454 108.923 786.234 108.461 786.69 107.537H788.904C788.604 108.449 788.058 109.199 787.266 109.787C786.486 110.363 785.514 110.651 784.35 110.651C783.402 110.651 782.55 110.441 781.794 110.021C781.05 109.589 780.462 108.989 780.03 108.221C779.61 107.441 779.4 106.541 779.4 105.521C779.4 104.501 779.604 103.607 780.012 102.839C780.432 102.059 781.014 101.459 781.758 101.039C782.514 100.619 783.378 100.409 784.35 100.409C785.286 100.409 786.12 100.613 786.852 101.021C787.584 101.429 788.154 102.005 788.562 102.749C788.97 103.481 789.174 104.327 789.174 105.287ZM787.032 104.639C787.02 103.883 786.75 103.277 786.222 102.821C785.694 102.365 785.04 102.137 784.26 102.137C783.552 102.137 782.946 102.365 782.442 102.821C781.938 103.265 781.638 103.871 781.542 104.639H787.032ZM794.794 110.651C794.014 110.651 793.312 110.513 792.688 110.237C792.076 109.949 791.59 109.565 791.23 109.085C790.87 108.593 790.678 108.047 790.654 107.447H792.778C792.814 107.867 793.012 108.221 793.372 108.509C793.744 108.785 794.206 108.923 794.758 108.923C795.334 108.923 795.778 108.815 796.09 108.599C796.414 108.371 796.576 108.083 796.576 107.735C796.576 107.363 796.396 107.087 796.036 106.907C795.688 106.727 795.13 106.529 794.362 106.313C793.618 106.109 793.012 105.911 792.544 105.719C792.076 105.527 791.668 105.233 791.32 104.837C790.984 104.441 790.816 103.919 790.816 103.271C790.816 102.743 790.972 102.263 791.284 101.831C791.596 101.387 792.04 101.039 792.616 100.787C793.204 100.535 793.876 100.409 794.632 100.409C795.76 100.409 796.666 100.697 797.35 101.273C798.046 101.837 798.418 102.611 798.466 103.595H796.414C796.378 103.151 796.198 102.797 795.874 102.533C795.55 102.269 795.112 102.137 794.56 102.137C794.02 102.137 793.606 102.239 793.318 102.443C793.03 102.647 792.886 102.917 792.886 103.253C792.886 103.517 792.982 103.739 793.174 103.919C793.366 104.099 793.6 104.243 793.876 104.351C794.152 104.447 794.56 104.573 795.1 104.729C795.82 104.921 796.408 105.119 796.864 105.323C797.332 105.515 797.734 105.803 798.07 106.187C798.406 106.571 798.58 107.081 798.592 107.717C798.592 108.281 798.436 108.785 798.124 109.229C797.812 109.673 797.368 110.021 796.792 110.273C796.228 110.525 795.562 110.651 794.794 110.651ZM804.409 110.651C803.629 110.651 802.927 110.513 802.303 110.237C801.691 109.949 801.205 109.565 800.845 109.085C800.485 108.593 800.293 108.047 800.269 107.447H802.393C802.429 107.867 802.627 108.221 802.987 108.509C803.359 108.785 803.821 108.923 804.373 108.923C804.949 108.923 805.393 108.815 805.705 108.599C806.029 108.371 806.191 108.083 806.191 107.735C806.191 107.363 806.011 107.087 805.651 106.907C805.303 106.727 804.745 106.529 803.977 106.313C803.233 106.109 802.627 105.911 802.159 105.719C801.691 105.527 801.283 105.233 800.935 104.837C800.599 104.441 800.431 103.919 800.431 103.271C800.431 102.743 800.587 102.263 800.899 101.831C801.211 101.387 801.655 101.039 802.231 100.787C802.819 100.535 803.491 100.409 804.247 100.409C805.375 100.409 806.281 100.697 806.965 101.273C807.661 101.837 808.033 102.611 808.081 103.595H806.029C805.993 103.151 805.813 102.797 805.489 102.533C805.165 102.269 804.727 102.137 804.175 102.137C803.635 102.137 803.221 102.239 802.933 102.443C802.645 102.647 802.501 102.917 802.501 103.253C802.501 103.517 802.597 103.739 802.789 103.919C802.981 104.099 803.215 104.243 803.491 104.351C803.767 104.447 804.175 104.573 804.715 104.729C805.435 104.921 806.023 105.119 806.479 105.323C806.947 105.515 807.349 105.803 807.685 106.187C808.021 106.571 808.195 107.081 808.207 107.717C808.207 108.281 808.051 108.785 807.739 109.229C807.427 109.673 806.983 110.021 806.407 110.273C805.843 110.525 805.177 110.651 804.409 110.651ZM819.514 105.287C819.514 105.659 819.49 105.995 819.442 106.295H811.864C811.924 107.087 812.218 107.723 812.746 108.203C813.274 108.683 813.922 108.923 814.69 108.923C815.794 108.923 816.574 108.461 817.03 107.537H819.244C818.944 108.449 818.398 109.199 817.606 109.787C816.826 110.363 815.854 110.651 814.69 110.651C813.742 110.651 812.89 110.441 812.134 110.021C811.39 109.589 810.802 108.989 810.37 108.221C809.95 107.441 809.74 106.541 809.74 105.521C809.74 104.501 809.944 103.607 810.352 102.839C810.772 102.059 811.354 101.459 812.098 101.039C812.854 100.619 813.718 100.409 814.69 100.409C815.626 100.409 816.46 100.613 817.192 101.021C817.924 101.429 818.494 102.005 818.902 102.749C819.31 103.481 819.514 104.327 819.514 105.287ZM817.372 104.639C817.36 103.883 817.09 103.277 816.562 102.821C816.034 102.365 815.38 102.137 814.6 102.137C813.892 102.137 813.286 102.365 812.782 102.821C812.278 103.265 811.978 103.871 811.882 104.639H817.372ZM823.586 102.011C823.886 101.507 824.282 101.117 824.774 100.841C825.278 100.553 825.872 100.409 826.556 100.409V102.533H826.034C825.23 102.533 824.618 102.737 824.198 103.145C823.79 103.553 823.586 104.261 823.586 105.269V110.489H821.534V100.571H823.586V102.011ZM830.836 102.245V107.735C830.836 108.107 830.92 108.377 831.088 108.545C831.268 108.701 831.568 108.779 831.988 108.779H833.248V110.489H831.628C830.704 110.489 829.996 110.273 829.504 109.841C829.012 109.409 828.766 108.707 828.766 107.735V102.245H827.596V100.571H828.766V98.105H830.836V100.571H833.248V102.245H830.836Z" fill="#544A3E"/>
</svg>
