<svg width="33" height="34" viewBox="0 0 33 34" fill="none" xmlns="http://www.w3.org/2000/svg">
<path d="M16.4428 11.2336C16.4428 11.2336 16.4428 11.2336 15.4032 9.86567C14.1995 8.27891 12.4212 7.12988 10.2873 7.12988C6.88124 7.12988 4.13177 9.87935 4.13177 13.2854C4.13177 14.5575 4.51478 15.7339 5.17137 16.7051C6.27937 18.3603 16.4428 29.0161 16.4428 29.0161M16.4428 11.2336C16.4428 11.2336 16.4428 11.2336 17.4824 9.86567C18.6861 8.27891 20.4644 7.12988 22.5983 7.12988C26.0044 7.12988 28.7538 9.87935 28.7538 13.2854C28.7538 14.5575 28.3708 15.7339 27.7142 16.7051C26.6062 18.3603 16.4428 29.0161 16.4428 29.0161" stroke="#F1F0EE" stroke-width="2" stroke-linecap="round" stroke-linejoin="round"/>
</svg>
